<svg width="194" height="64" viewBox="0 0 194 64" fill="none" xmlns="http://www.w3.org/2000/svg">
<circle cx="23" cy="30" r="19" stroke="#191818" stroke-width="8"/>
<path d="M36.7651 46.9106C35.6233 45.4973 35.6641 43.4675 36.8618 42.1012V42.1012C38.2012 40.5732 40.5165 40.3963 42.0726 41.7031L54.392 52.0492C56.768 54.0446 56.9245 57.6469 54.7305 59.8408V59.8408C52.5083 62.0631 48.85 61.8693 46.875 59.4246L36.7651 46.9106Z" fill="#191818"/>
<path fill-rule="evenodd" clip-rule="evenodd" d="M32.2949 22.4711C30.2733 20.9212 27.7442 20 25 20C18.3726 20 13 25.3726 13 32C13 33.3285 13.2159 34.6066 13.6145 35.801C11.9809 33.8152 11 31.2721 11 28.5C11 22.1487 16.1487 17 22.5 17C26.6405 17 30.2699 19.1881 32.2949 22.4711Z" fill="#191818"/>
<path d="M68.884 40L60.388 28.84V40H54.232V14.728H60.388V25.816L68.812 14.728H76.048L66.256 27.112L76.408 40H68.884ZM85.4896 35.248H93.5536V40H79.3336V14.728H85.4896V35.248ZM112.222 35.536H102.79L101.278 40H94.8338L103.978 14.728H111.106L120.25 40H113.734L112.222 35.536ZM110.638 30.784L107.506 21.532L104.41 30.784H110.638ZM138.333 27.04C139.797 27.352 140.973 28.084 141.861 29.236C142.749 30.364 143.193 31.66 143.193 33.124C143.193 35.236 142.449 36.916 140.961 38.164C139.497 39.388 137.445 40 134.805 40H123.033V14.728H134.409C136.977 14.728 138.981 15.316 140.421 16.492C141.885 17.668 142.617 19.264 142.617 21.28C142.617 22.768 142.221 24.004 141.429 24.988C140.661 25.972 139.629 26.656 138.333 27.04ZM129.189 24.952H133.221C134.229 24.952 134.997 24.736 135.525 24.304C136.077 23.848 136.353 23.188 136.353 22.324C136.353 21.46 136.077 20.8 135.525 20.344C134.997 19.888 134.229 19.66 133.221 19.66H129.189V24.952ZM133.725 35.032C134.757 35.032 135.549 34.804 136.101 34.348C136.677 33.868 136.965 33.184 136.965 32.296C136.965 31.408 136.665 30.712 136.065 30.208C135.489 29.704 134.685 29.452 133.653 29.452H129.189V35.032H133.725ZM158.715 40.252C156.339 40.252 154.155 39.7 152.163 38.596C150.195 37.492 148.623 35.956 147.447 33.988C146.295 31.996 145.719 29.764 145.719 27.292C145.719 24.82 146.295 22.6 147.447 20.632C148.623 18.664 150.195 17.128 152.163 16.024C154.155 14.92 156.339 14.368 158.715 14.368C161.091 14.368 163.263 14.92 165.231 16.024C167.223 17.128 168.783 18.664 169.911 20.632C171.063 22.6 171.639 24.82 171.639 27.292C171.639 29.764 171.063 31.996 169.911 33.988C168.759 35.956 167.199 37.492 165.231 38.596C163.263 39.7 161.091 40.252 158.715 40.252ZM158.715 34.636C160.731 34.636 162.339 33.964 163.539 32.62C164.763 31.276 165.375 29.5 165.375 27.292C165.375 25.06 164.763 23.284 163.539 21.964C162.339 20.62 160.731 19.948 158.715 19.948C156.675 19.948 155.043 20.608 153.819 21.928C152.619 23.248 152.019 25.036 152.019 27.292C152.019 29.524 152.619 31.312 153.819 32.656C155.043 33.976 156.675 34.636 158.715 34.636ZM181.22 14.728V40H175.064V14.728H181.22Z" fill="#191818"/>
</svg>
