<svg width="469" height="256" viewBox="0 0 469 256" fill="none" xmlns="http://www.w3.org/2000/svg">
<rect width="469" height="256" fill="white"/>
<circle cx="161" cy="126" r="19" stroke="#191818" stroke-width="8"/>
<path d="M174.765 142.911C173.623 141.497 173.664 139.468 174.862 138.101V138.101C176.201 136.573 178.517 136.396 180.073 137.703L192.392 148.049C194.768 150.045 194.924 153.647 192.731 155.841V155.841C190.508 158.063 186.85 157.869 184.875 155.425L174.765 142.911Z" fill="#191818"/>
<path fill-rule="evenodd" clip-rule="evenodd" d="M170.295 118.471C168.273 116.921 165.744 116 163 116C156.373 116 151 121.373 151 128C151 129.328 151.216 130.607 151.614 131.801C149.981 129.815 149 127.272 149 124.5C149 118.149 154.149 113 160.5 113C164.64 113 168.27 115.188 170.295 118.471Z" fill="#191818"/>
<path d="M206.884 136L198.388 124.84V136H192.232V110.728H198.388V121.816L206.812 110.728H214.048L204.256 123.112L214.408 136H206.884ZM223.49 131.248H231.554V136H217.334V110.728H223.49V131.248ZM250.222 131.536H240.79L239.278 136H232.834L241.978 110.728H249.106L258.25 136H251.734L250.222 131.536ZM248.638 126.784L245.506 117.532L242.41 126.784H248.638ZM276.333 123.04C277.797 123.352 278.973 124.084 279.861 125.236C280.749 126.364 281.193 127.66 281.193 129.124C281.193 131.236 280.449 132.916 278.961 134.164C277.497 135.388 275.445 136 272.805 136H261.033V110.728H272.409C274.977 110.728 276.981 111.316 278.421 112.492C279.885 113.668 280.617 115.264 280.617 117.28C280.617 118.768 280.221 120.004 279.429 120.988C278.661 121.972 277.629 122.656 276.333 123.04ZM267.189 120.952H271.221C272.229 120.952 272.997 120.736 273.525 120.304C274.077 119.848 274.353 119.188 274.353 118.324C274.353 117.46 274.077 116.8 273.525 116.344C272.997 115.888 272.229 115.66 271.221 115.66H267.189V120.952ZM271.725 131.032C272.757 131.032 273.549 130.804 274.101 130.348C274.677 129.868 274.965 129.184 274.965 128.296C274.965 127.408 274.665 126.712 274.065 126.208C273.489 125.704 272.685 125.452 271.653 125.452H267.189V131.032H271.725ZM296.715 136.252C294.339 136.252 292.155 135.7 290.163 134.596C288.195 133.492 286.623 131.956 285.447 129.988C284.295 127.996 283.719 125.764 283.719 123.292C283.719 120.82 284.295 118.6 285.447 116.632C286.623 114.664 288.195 113.128 290.163 112.024C292.155 110.92 294.339 110.368 296.715 110.368C299.091 110.368 301.263 110.92 303.231 112.024C305.223 113.128 306.783 114.664 307.911 116.632C309.063 118.6 309.639 120.82 309.639 123.292C309.639 125.764 309.063 127.996 307.911 129.988C306.759 131.956 305.199 133.492 303.231 134.596C301.263 135.7 299.091 136.252 296.715 136.252ZM296.715 130.636C298.731 130.636 300.339 129.964 301.539 128.62C302.763 127.276 303.375 125.5 303.375 123.292C303.375 121.06 302.763 119.284 301.539 117.964C300.339 116.62 298.731 115.948 296.715 115.948C294.675 115.948 293.043 116.608 291.819 117.928C290.619 119.248 290.019 121.036 290.019 123.292C290.019 125.524 290.619 127.312 291.819 128.656C293.043 129.976 294.675 130.636 296.715 130.636ZM319.22 110.728V136H313.064V110.728H319.22Z" fill="#191818"/>
</svg>
