<svg width="329" height="226" viewBox="0 0 329 226" fill="none" xmlns="http://www.w3.org/2000/svg">
<g clip-path="url(#clip0)">
<path d="M287.594 47.6479H287.548L260.941 59.005L224.536 74.5439C224.394 74.6038 224.241 74.6349 224.087 74.6357C223.932 74.6365 223.779 74.6069 223.637 74.5486L186.078 58.9726L158.816 47.6665L158.775 47.6479H158.728C158.298 47.6484 157.886 47.8194 157.582 48.1235C157.278 48.4275 157.106 48.8397 157.106 49.2697V119.701C157.106 120.131 157.278 120.543 157.582 120.847C157.886 121.151 158.298 121.322 158.728 121.323H287.594C288.025 121.322 288.437 121.151 288.741 120.847C289.045 120.543 289.216 120.131 289.217 119.701V49.2697C289.216 48.8397 289.045 48.4275 288.741 48.1235C288.437 47.8194 288.025 47.6484 287.594 47.6479Z" fill="white"/>
<path d="M287.71 48.1112C287.663 48.1112 287.617 48.0967 287.578 48.0697L223.479 3.44689C223.284 3.31172 223.052 3.23949 222.814 3.23989C222.577 3.24029 222.346 3.31332 222.151 3.44915L158.514 48.0692C158.463 48.1042 158.401 48.1179 158.341 48.1072C158.28 48.0965 158.227 48.0623 158.191 48.0121C158.156 47.9619 158.142 47.8998 158.153 47.8394C158.163 47.779 158.197 47.7252 158.247 47.6898L221.885 3.06974C222.157 2.87961 222.481 2.7774 222.814 2.77686C223.146 2.77631 223.47 2.87745 223.744 3.06668L287.843 47.6894C287.883 47.7176 287.914 47.7579 287.929 47.8046C287.945 47.8513 287.946 47.9019 287.931 47.949C287.916 47.996 287.887 48.0371 287.847 48.0663C287.807 48.0955 287.759 48.1112 287.71 48.1112H287.71Z" fill="#3F3D56"/>
<path d="M162.15 49.6934L222.877 4.70459L284.066 52.8944L226.006 87.299L194.485 80.1172L162.15 49.6934Z" fill="#E6E6E6"/>
<path d="M197.146 108.549H167.145C166.774 108.55 166.417 108.403 166.154 108.14C165.89 107.878 165.742 107.522 165.742 107.15C165.741 106.779 165.888 106.422 166.151 106.159C166.413 105.896 166.77 105.748 167.141 105.747H197.146C197.518 105.747 197.875 105.894 198.138 106.156C198.401 106.418 198.549 106.774 198.55 107.146C198.55 107.518 198.403 107.874 198.141 108.137C197.878 108.401 197.522 108.549 197.15 108.549H197.146Z" fill="#0F8797"/>
<path d="M177.909 102.526H167.145C166.773 102.526 166.417 102.379 166.154 102.117C165.891 101.854 165.743 101.498 165.742 101.127C165.742 100.755 165.889 100.399 166.151 100.136C166.413 99.8727 166.769 99.7244 167.141 99.7236H177.909C178.093 99.7232 178.275 99.7591 178.445 99.8292C178.616 99.8993 178.77 100.002 178.901 100.132C179.031 100.262 179.135 100.416 179.206 100.586C179.276 100.756 179.313 100.939 179.313 101.123C179.314 101.307 179.277 101.489 179.207 101.659C179.137 101.829 179.034 101.984 178.904 102.114C178.774 102.245 178.619 102.348 178.449 102.419C178.279 102.489 178.097 102.526 177.913 102.526H177.909Z" fill="#0F8797"/>
<path d="M223.731 74.7509C223.503 74.7511 223.277 74.7069 223.066 74.6207L185.614 59.0867V10.4626C185.614 10.0326 185.785 9.62042 186.09 9.31638C186.394 9.01235 186.806 8.84132 187.236 8.84082H259.086C259.516 8.84132 259.928 9.01235 260.233 9.31638C260.537 9.62042 260.708 10.0326 260.708 10.4626V59.1206L260.638 59.1507L224.416 74.6131C224.199 74.7042 223.967 74.7511 223.731 74.7509Z" fill="white"/>
<path d="M223.731 74.8667C223.488 74.867 223.247 74.8199 223.022 74.728L185.498 59.1642V10.4627C185.499 10.002 185.682 9.56036 186.008 9.23461C186.334 8.90885 186.775 8.72562 187.236 8.7251H259.086C259.547 8.72562 259.989 8.90885 260.315 9.23461C260.641 9.56036 260.824 10.002 260.824 10.4627V59.1972L224.462 74.7197C224.231 74.817 223.982 74.867 223.731 74.8667ZM185.962 58.8546L223.199 74.2996C223.546 74.4405 223.935 74.4382 224.281 74.2932L260.361 58.8913V10.4627C260.361 10.1249 260.226 9.80101 259.987 9.56213C259.748 9.32326 259.424 9.18888 259.086 9.18848H187.236C186.898 9.18888 186.574 9.32326 186.335 9.56213C186.096 9.80101 185.962 10.1249 185.962 10.4627L185.962 58.8546Z" fill="#3F3D56"/>
<path d="M287.246 47.6479H287.2L260.592 59.005L224.188 74.5439C224.045 74.6038 223.893 74.6349 223.738 74.6357C223.584 74.6365 223.431 74.6069 223.288 74.5486L185.73 58.9726L158.468 47.6665L158.427 47.6479H158.38C157.95 47.6484 157.538 47.8194 157.234 48.1235C156.929 48.4275 156.758 48.8397 156.758 49.2697V119.701C156.758 120.131 156.929 120.543 157.234 120.847C157.538 121.151 157.95 121.322 158.38 121.323H287.246C287.676 121.322 288.089 121.151 288.393 120.847C288.697 120.543 288.868 120.131 288.869 119.701V49.2697C288.868 48.8397 288.697 48.4275 288.393 48.1235C288.089 47.8194 287.676 47.6484 287.246 47.6479ZM288.405 119.701C288.405 120.008 288.283 120.303 288.066 120.52C287.848 120.737 287.554 120.859 287.246 120.86H158.38C158.073 120.859 157.778 120.737 157.561 120.52C157.344 120.303 157.221 120.008 157.221 119.701V49.2697C157.222 48.9702 157.338 48.6823 157.546 48.4665C157.754 48.2506 158.037 48.1233 158.336 48.1113L185.73 59.473L223.11 74.9772C223.515 75.1417 223.968 75.1392 224.371 74.9702L260.592 59.5078L287.293 48.1113C287.592 48.1242 287.874 48.2518 288.081 48.4676C288.288 48.6833 288.404 48.9706 288.405 49.2697V119.701Z" fill="#3F3D56"/>
<path d="M217.9 27.017H192.405C191.914 27.0163 191.443 26.8207 191.096 26.4732C190.749 26.1257 190.554 25.6546 190.554 25.1635C190.554 24.6724 190.749 24.2014 191.096 23.8539C191.443 23.5063 191.914 23.3108 192.405 23.3101H217.9C218.392 23.3108 218.863 23.5063 219.21 23.8539C219.557 24.2014 219.752 24.6724 219.752 25.1635C219.752 25.6546 219.557 26.1257 219.21 26.4732C218.863 26.8207 218.392 27.0163 217.9 27.017Z" fill="#0F8797"/>
<path d="M204.689 19.1395H192.405C191.914 19.1395 191.442 18.9443 191.094 18.5967C190.747 18.2491 190.551 17.7776 190.551 17.2861C190.551 16.7945 190.747 16.3231 191.094 15.9755C191.442 15.6279 191.914 15.4326 192.405 15.4326H204.689C205.181 15.4326 205.653 15.6279 206.001 15.9755C206.348 16.3231 206.544 16.7945 206.544 17.2861C206.544 17.7776 206.348 18.2491 206.001 18.5967C205.653 18.9443 205.181 19.1395 204.689 19.1395Z" fill="#0F8797"/>
<path d="M242.229 45.5516H203.291C202.8 45.5509 202.329 45.3554 201.982 45.0078C201.635 44.6603 201.44 44.1893 201.44 43.6982C201.44 43.2071 201.635 42.736 201.982 42.3885C202.329 42.041 202.8 41.8454 203.291 41.8447H242.229C242.721 41.8454 243.192 42.041 243.539 42.3885C243.886 42.736 244.081 43.2071 244.081 43.6982C244.081 44.1893 243.886 44.6603 243.539 45.0078C243.192 45.3554 242.721 45.5509 242.229 45.5516Z" fill="#CCCCCC"/>
<path d="M242.23 54.1239H203.292C202.8 54.1239 202.328 53.9286 201.981 53.581C201.633 53.2335 201.438 52.762 201.438 52.2705C201.438 51.7789 201.633 51.3074 201.981 50.9599C202.328 50.6123 202.8 50.417 203.292 50.417H242.23C242.721 50.417 243.193 50.6123 243.541 50.9599C243.888 51.3074 244.084 51.7789 244.084 52.2705C244.084 52.762 243.888 53.2335 243.541 53.581C243.193 53.9286 242.721 54.1239 242.23 54.1239Z" fill="#CCCCCC"/>
<path d="M286.528 65.9437C296.266 65.9437 304.159 58.0532 304.159 48.3198C304.159 38.5863 296.266 30.6958 286.528 30.6958C276.791 30.6958 268.897 38.5863 268.897 48.3198C268.897 58.0532 276.791 65.9437 286.528 65.9437Z" fill="#0F8797"/>
<path d="M284.848 55.7596L279.571 48.9769L282.639 46.591L285.138 49.8025L293.579 40.8955L296.401 43.5686L284.848 55.7596Z" fill="white"/>
<path d="M89.2369 152.481C88.9294 152.029 88.7248 151.515 88.6377 150.975C88.5505 150.435 88.5828 149.882 88.7323 149.356C88.8819 148.83 89.145 148.343 89.5031 147.93C89.8613 147.516 90.3058 147.186 90.8053 146.963L89.6587 133.718L95.735 137.01L95.8923 149.083C96.2117 149.947 96.2031 150.897 95.8681 151.755C95.5331 152.613 94.895 153.318 94.0746 153.737C93.2542 154.156 92.3087 154.259 91.417 154.028C90.5254 153.797 89.7497 153.246 89.2369 152.481H89.2369Z" fill="#9F616A"/>
<path d="M90.3885 144.102L90.3391 143.977L83.6354 127.048L82.5718 94.9586L82.7504 94.9459C84.0595 94.8525 85.374 95.0214 86.6168 95.4429C87.8597 95.8643 89.0057 96.5298 89.9876 97.4002C90.9696 98.2706 91.7676 99.3283 92.3349 100.511C92.9021 101.694 93.2272 102.979 93.2909 104.289L94.2741 121.542L97.0612 143.731L90.3885 144.102Z" fill="#E5E5E5"/>
<path d="M47.5654 214.854L51.419 217.296L62.6765 203.6L56.9888 199.996L47.5654 214.854Z" fill="#9F616A"/>
<path d="M47.3797 212.974L54.9691 217.783L54.9695 217.783C56.2521 218.596 57.1591 219.885 57.4911 221.367C57.8231 222.848 57.5527 224.401 56.7396 225.683L56.6399 225.84L44.2139 217.966L47.3797 212.974Z" fill="#2F2E41"/>
<path d="M83.9993 221.419L88.5623 221.419L90.7328 203.826L83.9985 203.826L83.9993 221.419Z" fill="#9F616A"/>
<path d="M82.8354 219.93L91.8215 219.929H91.8219C93.3406 219.929 94.7972 220.532 95.8711 221.606C96.945 222.679 97.5484 224.135 97.5485 225.653V225.839L82.8357 225.84L82.8354 219.93Z" fill="#2F2E41"/>
<path d="M71.0884 147.705L81.8305 212.292C81.8305 212.292 79.7173 217.573 82.8871 218.277C86.0569 218.981 93.101 217.573 93.101 217.573C93.101 217.573 95.2142 212.292 92.0443 211.588L86.0569 144.104L71.0884 147.705Z" fill="#2F2E41"/>
<path d="M77.4284 148.857L69.9864 179.057L51.0133 206.595C51.0133 206.595 43.9693 207.299 47.8435 211.172C51.7177 215.045 53.4787 215.397 53.4787 215.397C53.4787 215.397 59.4661 214.693 59.1139 211.876L82.44 184.43L93.2774 147.801L77.4284 148.857Z" fill="#2F2E41"/>
<path d="M70.9337 151.517L69.1365 141.264C66.43 138.437 71.5439 131.446 72.1141 130.686L71.7795 126.339C71.4944 126.29 71.2335 126.148 71.0379 125.935C69.3589 124.224 69.4717 117.471 69.4773 117.184L67.6245 97.9184L72.2343 95.2302L83.8919 94.8545L89.585 99.7865L95.0683 150.143L94.8727 150.153L70.9337 151.517Z" fill="#E5E5E5"/>
<path d="M74.9684 155.113C74.4986 154.832 74.0959 154.452 73.7888 154C73.4817 153.547 73.2776 153.033 73.1909 152.493C73.1042 151.953 73.1371 151.4 73.2871 150.874C73.4371 150.348 73.7006 149.862 74.0592 149.448L67.4248 137.926L74.3234 138.345L79.5659 149.223C80.2203 149.871 80.6141 150.737 80.6728 151.655C80.7314 152.574 80.4508 153.483 79.8842 154.209C79.3175 154.935 78.504 155.428 77.5981 155.594C76.6921 155.761 75.7564 155.589 74.9685 155.113H74.9684Z" fill="#9F616A"/>
<path d="M69.0933 144.338L63.3704 131.077L62.4139 103.989C62.3812 103.099 62.5931 102.217 63.0267 101.439C63.4602 100.66 64.0987 100.016 64.8729 99.5753L71.475 95.5425L72.8995 124.02L77.1597 141.039L69.0933 144.338Z" fill="#E5E5E5"/>
<path d="M79.3641 92.2851C83.8879 92.2851 87.5553 88.6192 87.5553 84.0971C87.5553 79.5751 83.8879 75.9092 79.3641 75.9092C74.8402 75.9092 71.1729 79.5751 71.1729 84.0971C71.1729 88.6192 74.8402 92.2851 79.3641 92.2851Z" fill="#9F616A"/>
<path d="M82.3259 72.0073C74.0765 69.6294 71.7349 76.464 71.7349 76.464C67.7585 79.101 70.2481 82.4072 70.2481 82.4072C69.2447 82.63 71.2509 88.4992 71.9198 88.3507C72.2767 88.2714 73.1946 89.3665 73.973 90.4052C74.24 90.4048 74.5063 90.4304 74.7683 90.4816L73.2579 84.8962C73.2579 84.8962 78.3489 84.1165 79.9098 81.665C81.4032 79.3196 86.3193 78.5791 87.7183 80.1458C87.8011 79.6953 87.9705 79.2652 88.2173 78.8794C88.4083 78.5863 88.6581 78.336 88.9509 78.1442C87.7139 72.8896 82.3259 72.0073 82.3259 72.0073Z" fill="#2F2E41"/>
<path opacity="0.2" d="M73.0317 113.644L72.5747 129.944L78.2476 141.896L73.0317 113.211" fill="black"/>
<path d="M142.175 226H0.372185C0.273476 226 0.178809 225.961 0.10901 225.891C0.039212 225.821 0 225.727 0 225.628C0 225.529 0.039212 225.435 0.10901 225.365C0.178809 225.295 0.273476 225.256 0.372185 225.256H142.175C142.273 225.256 142.368 225.295 142.438 225.365C142.508 225.435 142.547 225.529 142.547 225.628C142.547 225.727 142.508 225.821 142.438 225.891C142.368 225.961 142.273 226 142.175 226Z" fill="#3F3D56"/>
<path d="M122.574 17.5893C122.454 17.5182 122.316 17.4824 122.176 17.4861C122.036 17.4898 121.9 17.5327 121.784 17.61C121.667 17.6873 121.575 17.7959 121.518 17.9232C121.46 18.0506 121.439 18.1915 121.458 18.33L122.033 22.5427C122.041 22.6048 122.037 22.6679 122.02 22.7284C122.002 22.7879 121.972 22.8432 121.932 22.8906L118.714 26.7017C118.606 26.8243 118.543 26.9796 118.535 27.1424C118.526 27.3053 118.573 27.4663 118.667 27.5996L118.67 27.6045C118.76 27.7392 118.893 27.8399 119.047 27.8906C119.2 27.9413 119.367 27.9391 119.52 27.8842L121.844 27.0957C121.921 27.0702 122.003 27.0662 122.082 27.084C122.162 27.1018 122.234 27.1408 122.293 27.1968C122.337 27.2373 122.372 27.2865 122.396 27.3412C122.42 27.3959 122.432 27.455 122.432 27.5146L122.523 35.7921C122.523 35.9119 122.554 36.0297 122.61 36.1353C122.667 36.2409 122.749 36.3311 122.848 36.3981C122.947 36.465 123.061 36.5071 123.179 36.5209C123.298 36.5347 123.418 36.5198 123.53 36.4775L140.876 29.8461C141.007 29.7964 141.121 29.7107 141.206 29.599C141.29 29.4874 141.341 29.3542 141.353 29.2148C141.365 29.0754 141.337 28.9355 141.273 28.8111C141.209 28.6868 141.111 28.583 140.99 28.5118L140.754 28.3716L122.574 17.5893V17.5893ZM121.752 18.2895C121.741 18.2064 121.753 18.1218 121.788 18.0454C121.823 17.969 121.878 17.904 121.948 17.8577C122.018 17.8114 122.1 17.7857 122.184 17.7836C122.268 17.7815 122.35 17.8031 122.423 17.8458L140.597 28.6249L140.839 28.7682C140.911 28.8112 140.969 28.8735 141.007 28.948C141.046 29.0224 141.062 29.1062 141.055 29.1896C141.048 29.273 141.018 29.3527 140.967 29.4197C140.917 29.4867 140.849 29.5383 140.771 29.5685L123.425 36.1999C123.357 36.2254 123.285 36.2344 123.214 36.226C123.143 36.2176 123.074 36.1921 123.015 36.1517C122.956 36.1114 122.907 36.0573 122.873 35.9941C122.839 35.9308 122.821 35.8604 122.82 35.7886L122.729 27.5112C122.729 27.4293 122.715 27.348 122.688 27.2709L140.348 29.2992C140.417 29.3078 140.487 29.2921 140.545 29.2548C140.604 29.2174 140.647 29.1608 140.668 29.0948C140.69 29.0287 140.687 28.9573 140.661 28.893C140.635 28.8286 140.588 28.7753 140.526 28.7423C140.512 28.734 140.496 28.7273 140.48 28.7221L122.332 22.6666C122.336 22.6118 122.335 22.5567 122.327 22.5022L121.752 18.2895L121.752 18.2895Z" fill="#F1F1F1"/>
<path d="M122.574 17.5893C122.454 17.5182 122.316 17.4824 122.176 17.4861C122.036 17.4898 121.9 17.5327 121.784 17.61C121.667 17.6873 121.575 17.7959 121.518 17.9232C121.46 18.0506 121.439 18.1915 121.458 18.33L122.033 22.5427C122.041 22.6048 122.037 22.6679 122.02 22.7284C122.002 22.7879 121.972 22.8432 121.932 22.8906L118.714 26.7017C118.606 26.8243 118.543 26.9796 118.535 27.1424C118.526 27.3053 118.573 27.4663 118.667 27.5996L118.67 27.6045C118.76 27.7392 118.893 27.8399 119.047 27.8906C119.2 27.9413 119.367 27.9391 119.52 27.8842L121.844 27.0957C121.921 27.0702 122.003 27.0662 122.082 27.084C122.162 27.1018 122.234 27.1408 122.293 27.1968C122.337 27.2373 122.372 27.2865 122.396 27.3412C122.42 27.3959 122.432 27.455 122.432 27.5146L122.523 35.7921C122.523 35.9119 122.554 36.0297 122.61 36.1353C122.667 36.2409 122.749 36.3311 122.848 36.3981C122.947 36.465 123.061 36.5071 123.179 36.5209C123.298 36.5347 123.418 36.5198 123.53 36.4775L140.876 29.8461C141.007 29.7964 141.121 29.7107 141.206 29.599C141.29 29.4874 141.341 29.3542 141.353 29.2148C141.365 29.0754 141.337 28.9355 141.273 28.8111C141.209 28.6868 141.111 28.583 140.99 28.5118L140.754 28.3716L122.574 17.5893V17.5893ZM121.752 18.2895C121.741 18.2064 121.753 18.1218 121.788 18.0454C121.823 17.969 121.878 17.904 121.948 17.8577C122.018 17.8114 122.1 17.7857 122.184 17.7836C122.268 17.7815 122.35 17.8031 122.423 17.8458L140.597 28.6249L140.839 28.7682C140.911 28.8112 140.969 28.8735 141.007 28.948C141.046 29.0224 141.062 29.1062 141.055 29.1896C141.048 29.273 141.018 29.3527 140.967 29.4197C140.917 29.4867 140.849 29.5383 140.771 29.5685L123.425 36.1999C123.357 36.2254 123.285 36.2344 123.214 36.226C123.143 36.2176 123.074 36.1921 123.015 36.1517C122.956 36.1114 122.907 36.0573 122.873 35.994C122.839 35.9308 122.821 35.8603 122.82 35.7886L122.729 27.5112C122.729 27.4293 122.715 27.348 122.688 27.2709C122.649 27.1598 122.583 27.0599 122.497 26.9798C122.485 26.9681 122.472 26.9572 122.459 26.9463L122.459 26.9451C122.361 26.8646 122.245 26.8105 122.121 26.7876C121.996 26.7648 121.868 26.7741 121.749 26.8146L119.423 27.604C119.332 27.6372 119.231 27.6386 119.139 27.6078C119.046 27.5769 118.967 27.5158 118.914 27.4342L118.912 27.4318C118.855 27.3521 118.827 27.2554 118.832 27.1576C118.837 27.0598 118.875 26.9666 118.941 26.8935L122.159 23.0825C122.193 23.0426 122.223 22.999 122.248 22.9524L122.249 22.9515C122.273 22.9069 122.292 22.8599 122.306 22.8113C122.319 22.7642 122.328 22.7157 122.332 22.6666C122.336 22.6118 122.335 22.5567 122.327 22.5023L121.752 18.2896V18.2895Z" fill="#E5E5E5"/>
<path d="M122.332 22.6667L140.48 28.7222C140.496 28.7274 140.512 28.7342 140.527 28.7424C140.588 28.7754 140.635 28.8287 140.661 28.8931C140.687 28.9574 140.69 29.0288 140.668 29.0949C140.647 29.161 140.604 29.2175 140.545 29.2549C140.487 29.2922 140.417 29.3079 140.348 29.2993L122.688 27.271L122.376 27.2355L122.41 26.9407L122.459 26.9452L122.46 26.9464L140.382 29.0033L122.249 22.9516L122.248 22.9525L122.169 22.9254L122.264 22.6436L122.332 22.6667Z" fill="#E5E5E5"/>
<path d="M324.96 0.1035L306.779 10.8858L306.543 11.026C306.423 11.0972 306.325 11.2009 306.261 11.3253C306.197 11.4496 306.169 11.5896 306.181 11.7289C306.193 11.8683 306.244 12.0015 306.328 12.1132C306.412 12.2249 306.527 12.3105 306.657 12.3603L324.004 18.9917C324.116 19.034 324.236 19.0489 324.355 19.0351C324.473 19.0213 324.587 18.9792 324.686 18.9123C324.785 18.8452 324.867 18.755 324.923 18.6495C324.98 18.5439 325.01 18.4261 325.011 18.3062L325.102 10.0288C325.102 9.96911 325.114 9.91007 325.138 9.85537C325.162 9.80067 325.197 9.75149 325.241 9.71094C325.299 9.65494 325.372 9.61595 325.451 9.59814C325.531 9.58034 325.613 9.58439 325.69 9.60986L328.014 10.3984C328.167 10.4532 328.333 10.4555 328.487 10.4048C328.641 10.3541 328.774 10.2533 328.864 10.1186L328.867 10.1137C328.961 9.98045 329.008 9.81944 328.999 9.65658C328.99 9.49373 328.927 9.33848 328.82 9.21582L325.602 5.40479C325.561 5.35733 325.531 5.30211 325.513 5.24255C325.497 5.18206 325.493 5.119 325.501 5.05689L326.075 0.844171C326.094 0.705705 326.074 0.564723 326.016 0.437378C325.959 0.310034 325.866 0.201487 325.75 0.124175C325.633 0.0468626 325.497 0.00391224 325.358 0.000254794C325.218 -0.00340265 325.08 0.0323792 324.96 0.103494V0.1035ZM325.782 0.803712L325.207 5.01641C325.199 5.07082 325.197 5.12596 325.202 5.18077L307.054 11.2362C307.038 11.2414 307.022 11.2482 307.007 11.2565C306.946 11.2895 306.899 11.3427 306.873 11.4071C306.847 11.4715 306.844 11.5429 306.865 11.6089C306.887 11.675 306.93 11.7316 306.989 11.7689C307.047 11.8062 307.117 11.822 307.186 11.8134L324.846 9.78504C324.818 9.86217 324.804 9.94347 324.804 10.0254L324.714 18.3028C324.713 18.3745 324.695 18.445 324.661 18.5082C324.627 18.5714 324.578 18.6255 324.519 18.6659C324.459 18.7063 324.391 18.7317 324.32 18.7401C324.249 18.7485 324.176 18.7396 324.109 18.7141L306.763 12.0826C306.685 12.0524 306.617 12.0009 306.566 11.9339C306.516 11.8669 306.486 11.7871 306.479 11.7037C306.472 11.6203 306.488 11.5366 306.526 11.4621C306.564 11.3876 306.623 11.3253 306.695 11.2824L306.937 11.139L325.111 0.359963C325.183 0.317211 325.266 0.29565 325.35 0.297745C325.434 0.29984 325.515 0.325508 325.585 0.371811C325.655 0.418113 325.711 0.483177 325.746 0.559556C325.78 0.635935 325.793 0.720544 325.782 0.803689V0.803712Z" fill="#F1F1F1"/>
<path d="M324.96 0.1035L306.779 10.8858L306.543 11.026C306.423 11.0972 306.325 11.2009 306.261 11.3253C306.197 11.4496 306.169 11.5896 306.181 11.7289C306.193 11.8683 306.244 12.0015 306.328 12.1132C306.412 12.2249 306.527 12.3105 306.657 12.3603L324.004 18.9917C324.116 19.034 324.236 19.0489 324.355 19.0351C324.473 19.0213 324.587 18.9792 324.686 18.9123C324.785 18.8452 324.867 18.755 324.923 18.6495C324.98 18.5439 325.01 18.4261 325.011 18.3062L325.102 10.0288C325.102 9.96911 325.114 9.91007 325.138 9.85537C325.162 9.80067 325.197 9.75149 325.241 9.71094C325.299 9.65494 325.372 9.61595 325.451 9.59814C325.531 9.58034 325.613 9.58439 325.69 9.60986L328.014 10.3984C328.167 10.4532 328.333 10.4555 328.487 10.4048C328.641 10.3541 328.774 10.2533 328.864 10.1186L328.867 10.1137C328.961 9.98045 329.008 9.81944 328.999 9.65658C328.99 9.49373 328.927 9.33848 328.82 9.21582L325.602 5.40479C325.561 5.35733 325.531 5.30211 325.513 5.24255C325.497 5.18206 325.493 5.119 325.501 5.05689L326.075 0.844171C326.094 0.705705 326.074 0.564723 326.016 0.437378C325.959 0.310034 325.866 0.201487 325.75 0.124175C325.633 0.0468626 325.497 0.00391224 325.358 0.000254794C325.218 -0.00340265 325.08 0.0323792 324.96 0.103494V0.1035ZM325.782 0.803712L325.207 5.01642C325.199 5.07083 325.197 5.12596 325.202 5.18077C325.205 5.22982 325.214 5.27833 325.228 5.3255C325.242 5.37411 325.261 5.4211 325.285 5.4657L325.286 5.46654C325.311 5.51311 325.34 5.55676 325.375 5.59668L328.593 9.40764C328.658 9.48078 328.697 9.57394 328.702 9.67177C328.707 9.7696 328.679 9.8663 328.622 9.94596L328.62 9.9484C328.567 10.03 328.487 10.0911 328.395 10.1219C328.302 10.1527 328.202 10.1514 328.11 10.1182L325.785 9.32878C325.666 9.28824 325.537 9.27895 325.413 9.30178C325.289 9.32461 325.172 9.3788 325.075 9.45922L325.074 9.46042C325.061 9.47137 325.048 9.48226 325.037 9.49399C324.95 9.57406 324.885 9.67396 324.846 9.78503C324.818 9.86215 324.804 9.94346 324.804 10.0254L324.714 18.3028C324.713 18.3745 324.695 18.445 324.661 18.5082C324.627 18.5714 324.578 18.6255 324.519 18.6659C324.459 18.7063 324.391 18.7317 324.32 18.7401C324.248 18.7485 324.176 18.7396 324.109 18.7141L306.763 12.0826C306.685 12.0524 306.617 12.0009 306.566 11.9339C306.516 11.8669 306.486 11.7871 306.479 11.7037C306.472 11.6203 306.488 11.5366 306.526 11.4621C306.564 11.3876 306.623 11.3253 306.695 11.2824L306.937 11.139L325.111 0.359969C325.183 0.317217 325.266 0.295656 325.35 0.297751C325.434 0.299845 325.515 0.325514 325.585 0.371816C325.655 0.418119 325.711 0.483182 325.746 0.559561C325.78 0.635941 325.793 0.72055 325.782 0.803695V0.803712Z" fill="#E5E5E5"/>
<path d="M325.27 5.15771L325.364 5.4396L325.286 5.46665L325.285 5.46581L307.152 11.5175L325.074 9.46053L325.075 9.45934L325.123 9.45481L325.158 9.74964L324.846 9.78514L307.186 11.8135C307.117 11.8221 307.047 11.8064 306.989 11.769C306.93 11.7317 306.886 11.6751 306.865 11.609C306.844 11.543 306.847 11.4716 306.873 11.4072C306.898 11.3429 306.946 11.2896 307.007 11.2566C307.022 11.2483 307.037 11.2416 307.054 11.2363L325.202 5.1809L325.27 5.15771Z" fill="#E5E5E5"/>
<path d="M169.391 150.758C169.267 150.822 169.163 150.919 169.091 151.039C169.02 151.159 168.983 151.297 168.987 151.437C168.99 151.577 169.032 151.713 169.109 151.829C169.186 151.946 169.294 152.039 169.421 152.097L173.29 153.863C173.347 153.889 173.398 153.926 173.441 153.972C173.482 154.019 173.512 154.074 173.531 154.134L175.033 158.889C175.08 159.046 175.177 159.182 175.31 159.276C175.443 159.371 175.604 159.417 175.767 159.409L175.773 159.409C175.935 159.405 176.091 159.347 176.216 159.244C176.342 159.141 176.429 158.999 176.464 158.841L177.039 156.456C177.059 156.377 177.099 156.305 177.157 156.248C177.214 156.19 177.286 156.15 177.365 156.13C177.422 156.115 177.483 156.111 177.542 156.121C177.601 156.13 177.657 156.151 177.708 156.183L184.755 160.53C184.857 160.593 184.973 160.63 185.092 160.639C185.212 160.648 185.332 160.627 185.441 160.579C185.551 160.531 185.647 160.457 185.722 160.364C185.797 160.271 185.849 160.162 185.873 160.045L189.536 141.845C189.564 141.708 189.553 141.566 189.503 141.435C189.454 141.304 189.369 141.19 189.257 141.105C189.146 141.021 189.012 140.969 188.873 140.957C188.734 140.945 188.594 140.972 188.469 141.036L188.224 141.16L169.391 150.758ZM169.544 151.827C169.468 151.792 169.403 151.736 169.357 151.666C169.311 151.596 169.286 151.514 169.284 151.43C169.282 151.346 169.304 151.264 169.347 151.192C169.39 151.12 169.453 151.061 169.527 151.023L188.354 141.429L188.605 141.301C188.68 141.263 188.763 141.247 188.847 141.254C188.93 141.262 189.01 141.293 189.077 141.343C189.143 141.394 189.194 141.462 189.224 141.54C189.254 141.619 189.261 141.704 189.245 141.786L185.582 159.986C185.568 160.056 185.537 160.122 185.492 160.177C185.446 160.233 185.388 160.277 185.322 160.306C185.257 160.334 185.185 160.347 185.113 160.341C185.042 160.336 184.972 160.314 184.911 160.276L177.864 155.93C177.794 155.886 177.718 155.854 177.638 155.836L188.791 141.999C188.836 141.946 188.859 141.878 188.859 141.809C188.859 141.74 188.834 141.673 188.79 141.619C188.745 141.566 188.683 141.53 188.615 141.518C188.547 141.505 188.476 141.517 188.416 141.551C188.401 141.559 188.387 141.569 188.374 141.579L173.555 153.676C173.511 153.643 173.463 153.615 173.413 153.593L169.544 151.827Z" fill="#F1F1F1"/>
<path d="M169.391 150.758C169.267 150.822 169.163 150.919 169.091 151.039C169.02 151.159 168.983 151.297 168.987 151.437C168.99 151.577 169.032 151.713 169.109 151.829C169.186 151.946 169.294 152.039 169.421 152.097L173.29 153.863C173.347 153.889 173.398 153.926 173.441 153.972C173.482 154.019 173.512 154.074 173.531 154.134L175.033 158.889C175.08 159.046 175.177 159.182 175.31 159.276C175.443 159.371 175.604 159.417 175.767 159.409L175.773 159.409C175.935 159.405 176.091 159.347 176.216 159.244C176.342 159.141 176.429 158.999 176.464 158.841L177.039 156.456C177.059 156.377 177.099 156.305 177.157 156.248C177.214 156.19 177.286 156.15 177.365 156.13C177.422 156.115 177.483 156.111 177.542 156.121C177.601 156.13 177.657 156.151 177.708 156.183L184.755 160.53C184.857 160.593 184.973 160.63 185.092 160.639C185.212 160.648 185.332 160.627 185.441 160.579C185.551 160.531 185.647 160.457 185.722 160.364C185.797 160.271 185.849 160.162 185.873 160.045L189.536 141.845C189.564 141.708 189.553 141.566 189.503 141.435C189.454 141.304 189.369 141.19 189.257 141.105C189.146 141.021 189.012 140.969 188.873 140.957C188.734 140.945 188.594 140.972 188.469 141.036L188.224 141.16L169.391 150.758ZM169.544 151.827C169.468 151.792 169.403 151.736 169.357 151.666C169.311 151.596 169.286 151.514 169.284 151.43C169.282 151.346 169.304 151.264 169.347 151.192C169.39 151.12 169.453 151.061 169.527 151.023L188.354 141.429L188.605 141.301C188.68 141.263 188.763 141.247 188.847 141.254C188.93 141.262 189.01 141.293 189.077 141.343C189.143 141.394 189.194 141.462 189.224 141.54C189.254 141.619 189.261 141.704 189.245 141.786L185.582 159.986C185.568 160.056 185.537 160.122 185.492 160.177C185.446 160.233 185.388 160.277 185.322 160.306C185.257 160.334 185.185 160.347 185.113 160.341C185.042 160.336 184.972 160.314 184.911 160.276L177.864 155.929C177.794 155.886 177.718 155.854 177.638 155.836C177.524 155.81 177.404 155.812 177.29 155.842C177.274 155.845 177.258 155.85 177.242 155.856L177.24 155.856C177.12 155.895 177.012 155.964 176.927 156.057C176.841 156.15 176.78 156.263 176.751 156.386L176.175 158.772C176.154 158.868 176.102 158.953 176.027 159.015C175.951 159.076 175.857 159.111 175.759 159.112L175.756 159.112C175.659 159.118 175.562 159.09 175.482 159.033C175.402 158.977 175.344 158.895 175.317 158.8L173.814 154.045C173.799 153.994 173.778 153.946 173.752 153.9L173.752 153.899C173.727 153.855 173.697 153.813 173.663 153.776C173.631 153.739 173.595 153.705 173.555 153.676C173.511 153.643 173.463 153.615 173.413 153.593L169.544 151.827Z" fill="#E5E5E5"/>
<path d="M173.555 153.676L188.374 141.579C188.387 141.568 188.401 141.559 188.416 141.551C188.476 141.517 188.547 141.505 188.615 141.518C188.683 141.53 188.745 141.566 188.789 141.619C188.834 141.672 188.859 141.74 188.859 141.809C188.859 141.878 188.835 141.946 188.791 141.999L177.638 155.836L177.441 156.081L177.21 155.894L177.24 155.855L177.242 155.855L188.559 141.812L173.751 153.898L173.751 153.9L173.687 153.952L173.499 153.721L173.555 153.676Z" fill="#E5E5E5"/>
</g>
<defs>
<clipPath id="clip0">
<rect width="329" height="226" fill="white"/>
</clipPath>
</defs>
</svg>
