<svg width="37" height="37" viewBox="0 0 37 37" fill="none" xmlns="http://www.w3.org/2000/svg">
<path fill-rule="evenodd" clip-rule="evenodd" d="M0 7.4C0 5.4374 0.779641 3.55518 2.16741 2.16741C3.55518 0.779641 5.4374 0 7.4 0H29.6C31.5626 0 33.4448 0.779641 34.8326 2.16741C36.2204 3.55518 37 5.4374 37 7.4V29.6C37 31.5626 36.2204 33.4448 34.8326 34.8326C33.4448 36.2204 31.5626 37 29.6 37H7.4C5.4374 37 3.55518 36.2204 2.16741 34.8326C0.779641 33.4448 0 31.5626 0 29.6V7.4ZM7.4 3.7C6.4187 3.7 5.47759 4.08982 4.7837 4.7837C4.08982 5.47759 3.7 6.4187 3.7 7.4V29.6C3.7 30.5813 4.08982 31.5224 4.7837 32.2163C5.47759 32.9102 6.4187 33.3 7.4 33.3H18.5V20.35H16.65C16.1593 20.35 15.6888 20.1551 15.3419 19.8081C14.9949 19.4612 14.8 18.9907 14.8 18.5C14.8 18.0093 14.9949 17.5388 15.3419 17.1919C15.6888 16.8449 16.1593 16.65 16.65 16.65H18.5V13.875C18.5 12.1577 19.1822 10.5108 20.3965 9.29648C21.6108 8.08219 23.2577 7.4 24.975 7.4H26.085C26.5757 7.4 27.0462 7.59491 27.3931 7.94185C27.7401 8.2888 27.935 8.75935 27.935 9.25C27.935 9.74065 27.7401 10.2112 27.3931 10.5581C27.0462 10.9051 26.5757 11.1 26.085 11.1H24.975C24.6106 11.1 24.2497 11.1718 23.9131 11.3112C23.5764 11.4507 23.2705 11.6551 23.0128 11.9128C22.7551 12.1705 22.5507 12.4764 22.4112 12.8131C22.2718 13.1497 22.2 13.5106 22.2 13.875V16.65H26.085C26.5757 16.65 27.0462 16.8449 27.3931 17.1919C27.7401 17.5388 27.935 18.0093 27.935 18.5C27.935 18.9907 27.7401 19.4612 27.3931 19.8081C27.0462 20.1551 26.5757 20.35 26.085 20.35H22.2V33.3H29.6C30.5813 33.3 31.5224 32.9102 32.2163 32.2163C32.9102 31.5224 33.3 30.5813 33.3 29.6V7.4C33.3 6.4187 32.9102 5.47759 32.2163 4.7837C31.5224 4.08982 30.5813 3.7 29.6 3.7H7.4Z" fill="white" fill-opacity="0.54"/>
</svg>
