<svg width="37" height="37" viewBox="0 0 37 37" fill="none" xmlns="http://www.w3.org/2000/svg">
<path fill-rule="evenodd" clip-rule="evenodd" d="M0.583344 7.74967C0.583344 5.84896 1.3384 4.02609 2.68241 2.68208C4.02642 1.33807 5.84929 0.583008 7.75001 0.583008H29.25C31.1507 0.583008 32.9736 1.33807 34.3176 2.68208C35.6616 4.02609 36.4167 5.84896 36.4167 7.74967V29.2497C36.4167 31.1504 35.6616 32.9733 34.3176 34.3173C32.9736 35.6613 31.1507 36.4163 29.25 36.4163H7.75001C5.84929 36.4163 4.02642 35.6613 2.68241 34.3173C1.3384 32.9733 0.583344 31.1504 0.583344 29.2497V7.74967ZM7.75001 4.16634C6.79965 4.16634 5.88822 4.54387 5.21621 5.21588C4.54421 5.88788 4.16668 6.79932 4.16668 7.74967V29.2497C4.16668 30.2 4.54421 31.1115 5.21621 31.7835C5.88822 32.4555 6.79965 32.833 7.75001 32.833H29.25C30.2004 32.833 31.1118 32.4555 31.7838 31.7835C32.4558 31.1115 32.8333 30.2 32.8333 29.2497V7.74967C32.8333 6.79932 32.4558 5.88788 31.7838 5.21588C31.1118 4.54387 30.2004 4.16634 29.25 4.16634H7.75001ZM18.5 13.1247C17.0745 13.1247 15.7073 13.691 14.6993 14.699C13.6913 15.707 13.125 17.0741 13.125 18.4997C13.125 19.9252 13.6913 21.2924 14.6993 22.3004C15.7073 23.3084 17.0745 23.8747 18.5 23.8747C19.9256 23.8747 21.2927 23.3084 22.3007 22.3004C23.3087 21.2924 23.875 19.9252 23.875 18.4997C23.875 17.0741 23.3087 15.707 22.3007 14.699C21.2927 13.691 19.9256 13.1247 18.5 13.1247ZM9.54168 18.4997C9.54168 16.1238 10.4855 13.8452 12.1655 12.1652C13.8455 10.4852 16.1241 9.54134 18.5 9.54134C20.8759 9.54134 23.1545 10.4852 24.8345 12.1652C26.5145 13.8452 27.4583 16.1238 27.4583 18.4997C27.4583 20.8756 26.5145 23.1542 24.8345 24.8342C23.1545 26.5142 20.8759 27.458 18.5 27.458C16.1241 27.458 13.8455 26.5142 12.1655 24.8342C10.4855 23.1542 9.54168 20.8756 9.54168 18.4997ZM28.3542 11.333C29.0669 11.333 29.7505 11.0499 30.2545 10.5459C30.7585 10.0419 31.0417 9.35828 31.0417 8.64551C31.0417 7.93274 30.7585 7.24916 30.2545 6.74516C29.7505 6.24115 29.0669 5.95801 28.3542 5.95801C27.6414 5.95801 26.9578 6.24115 26.4538 6.74516C25.9498 7.24916 25.6667 7.93274 25.6667 8.64551C25.6667 9.35828 25.9498 10.0419 26.4538 10.5459C26.9578 11.0499 27.6414 11.333 28.3542 11.333Z" fill="#91C8CF"/>
</svg>
